<svg xmlns="http://www.w3.org/2000/svg" xmlns:xlink="http://www.w3.org/1999/xlink" width="730.821" height="180.419" viewBox="0 0 730.821 180.419">
  <defs>
    <radialGradient id="radial-gradient" cx="120.475" cy="125.077" r="75.446" gradientTransform="translate(-11.62 -12.786) scale(1.13 1.13)" gradientUnits="userSpaceOnUse">
      <stop offset="0.234" stop-color="#00c1fd"/>
      <stop offset="0.784" stop-color="#008ffb"/>
      <stop offset="0.928" stop-color="#0081fb"/>
    </radialGradient>
  </defs>
  <g id="Grupo_66" data-name="Grupo 66" transform="translate(-134.483 -409.976)">
    <g id="Grupo_55" data-name="Grupo 55" transform="translate(3.483 338.976)">
      <g id="Logo_Nuevo-02" data-name="Logo Nuevo-02" transform="translate(131 71)">
        <g id="Grupo_48" data-name="Grupo 48" transform="translate(0)">
          <g id="Grupo_47" data-name="Grupo 47">
            <path id="Trazado_17" data-name="Trazado 17" d="M155.266,194.373c-25.532-10.59-38.442-27.562-38.442-50.628V89.635c0-28.433-16.1-50.193-46.421-62.668a6.534,6.534,0,1,0-5.077,12.04C90.857,49.6,103.768,66.57,103.768,89.635v54.11c0,28.433,16.1,50.193,46.421,62.668a7.368,7.368,0,0,0,2.466.435,6.5,6.5,0,0,0,2.611-12.476ZM88.246,144.18V87.894A34.825,34.825,0,0,0,53.43,53.079h-.29a6.5,6.5,0,0,0-6.528,6.528v.29a6.192,6.192,0,0,0,6.238,6.238,21.112,21.112,0,0,1,21.18,21.18V145.2a21.112,21.112,0,0,1-21.18,21.18,6.192,6.192,0,0,0-6.238,6.238v.58a6.192,6.192,0,0,0,6.238,6.238h.58A35.389,35.389,0,0,0,88.246,144.18ZM63,133.01V100.37A20.276,20.276,0,0,0,42.7,80.061H41.245a20.348,20.348,0,0,0-5.948.87,6.539,6.539,0,0,0-4.5,6.093v.145a6.625,6.625,0,0,0,6.528,6.673h10.01A2.445,2.445,0,0,1,49.8,96.308v40.763a2.445,2.445,0,0,1-2.466,2.466H37.328a6.5,6.5,0,0,0-6.528,6.528,6.4,6.4,0,0,0,4.642,6.238,19.386,19.386,0,0,0,5.8.87h1.6A20.03,20.03,0,0,0,63,133.01Zm33.075,44.1a6.786,6.786,0,0,0-9.284,2.031A29.628,29.628,0,0,1,67.066,192.2a6.673,6.673,0,0,0-5.8,7.4,6.531,6.531,0,0,0,6.238,5.8h1.161c.725-.145,18.713-2.466,29.3-19.149A6.316,6.316,0,0,0,96.08,177.11Zm72.533-9.284a21.112,21.112,0,0,1-21.18-21.18V88.765a21.112,21.112,0,0,1,21.18-21.18,6.192,6.192,0,0,0,6.238-6.238v-.58a6.192,6.192,0,0,0-6.238-6.238h-.58a34.825,34.825,0,0,0-34.816,34.816v56.285a34.825,34.825,0,0,0,34.816,34.816h.29a6.5,6.5,0,0,0,6.528-6.528v-.29A6.114,6.114,0,0,0,168.612,167.826Zm15.377-27.853H173.98a2.445,2.445,0,0,1-2.466-2.466V96.743a2.445,2.445,0,0,1,2.466-2.466h10.01a6.5,6.5,0,0,0,6.528-6.528,6.4,6.4,0,0,0-4.642-6.238,19.386,19.386,0,0,0-5.8-.87h-1.6a20.276,20.276,0,0,0-20.309,20.309v32.785a20.276,20.276,0,0,0,20.309,20.309h1.6a20.348,20.348,0,0,0,5.948-.87,6.539,6.539,0,0,0,4.5-6.093v-.145A6.61,6.61,0,0,0,183.989,139.973ZM125.238,56.705a6.786,6.786,0,0,0,9.284-2.031,29.628,29.628,0,0,1,19.729-13.056,6.673,6.673,0,0,0,5.8-7.4,6.531,6.531,0,0,0-6.238-5.8h-1.161c-.725.145-18.713,2.466-29.3,19.149A6.577,6.577,0,0,0,125.238,56.705Z" transform="translate(-30.8 -26.43)" fill="url(#radial-gradient)"/>
          </g>
        </g>
        <text id="Learning_goes_social." data-name="Learning goes social." transform="translate(212.913 169.162)" fill="#04325e" font-size="33" font-family="Raleway-Light, Raleway Light" font-weight="300"><tspan x="0" y="0">Learning goes </tspan><tspan y="0" fill="#00a0ff" font-family="Raleway-Medium, Raleway Medium" font-weight="500">social.</tspan></text>
        <g id="Grupo_49" data-name="Grupo 49" transform="translate(212.521 38.544)">
          <path id="Trazado_18" data-name="Trazado 18" d="M177.3,136.952v-79.5a2.754,2.754,0,0,1,2.756-2.756h7.4a2.754,2.754,0,0,1,2.756,2.756v68.181h38.442a5.82,5.82,0,0,1,5.8,5.8h0a5.82,5.82,0,0,1-5.8,5.8H177.3Z" transform="translate(-177.3 -52.234)" fill="#00a0ff"/>
          <path id="Trazado_19" data-name="Trazado 19" d="M224.4,64.315V55.9a2.91,2.91,0,0,1,2.9-2.9h7.108a2.91,2.91,0,0,1,2.9,2.9V64.17a2.91,2.91,0,0,1-2.9,2.9H227.3A2.884,2.884,0,0,1,224.4,64.315Zm0,70.792V79.837a2.754,2.754,0,0,1,2.756-2.756h7.253a2.754,2.754,0,0,1,2.756,2.756v55.27a2.6,2.6,0,0,1-2.611,2.611h-7.543A2.6,2.6,0,0,1,224.4,135.107Z" transform="translate(-156.074 -53)" fill="#00a0ff"/>
          <path id="Trazado_20" data-name="Trazado 20" d="M297.088,130.553h-7.543a2.6,2.6,0,0,1-2.611-2.611V96.608c0-5.658-.87-9.864-2.756-12.476a9.3,9.3,0,0,0-8.124-3.917,14.3,14.3,0,0,0-5.512,1.015,22.918,22.918,0,0,0-5.222,2.9,21.43,21.43,0,0,0-4.352,4.5,16.791,16.791,0,0,0-2.9,5.8v33.51a2.6,2.6,0,0,1-2.611,2.611h-7.543a2.6,2.6,0,0,1-2.611-2.611V72.672a2.754,2.754,0,0,1,2.756-2.756h6.093a2.754,2.754,0,0,1,2.756,2.756V82.1a24.353,24.353,0,0,1,10.155-9.719A30.777,30.777,0,0,1,281.711,68.9a18.333,18.333,0,0,1,8.994,2.031,14.011,14.011,0,0,1,5.512,5.367,26.529,26.529,0,0,1,2.9,7.834,49.544,49.544,0,0,1,.87,9.429v34.381A3.085,3.085,0,0,1,297.088,130.553Z" transform="translate(-146.655 -45.835)" fill="#00a0ff"/>
        </g>
        <g id="Grupo_50" data-name="Grupo 50" transform="translate(373.544 38.544)">
          <path id="Trazado_21" data-name="Trazado 21" d="M324.276,131.089a2.822,2.822,0,0,1-1.741,3.482h0q-1.523.653-3.482,1.306a29.839,29.839,0,0,1-4.207,1.015,24.01,24.01,0,0,1-4.642.435,15.122,15.122,0,0,1-9.574-3.046c-2.756-2.031-4.062-5.222-4.062-9.574V83.943H288.3V75.964h8.269V58.556a2.754,2.754,0,0,1,2.756-2.756h4.642a2.754,2.754,0,0,1,2.756,2.756V75.964h13.636v7.979H306.723v37.572a6.578,6.578,0,0,0,2.176,4.932,7.378,7.378,0,0,0,4.642,1.451,13.349,13.349,0,0,0,5.513-1.015c.145,0,.29-.145.435-.145a3.018,3.018,0,0,1,3.917,1.886Z" transform="translate(-288.3 -51.738)" fill="#04325e"/>
          <path id="Trazado_22" data-name="Trazado 22" d="M349.2,131.713a31.9,31.9,0,0,1-12.476-2.466A27.4,27.4,0,0,1,327,122.429a32.748,32.748,0,0,1-6.383-10.01,33.722,33.722,0,0,1-2.321-12.186,30.7,30.7,0,0,1,2.321-12.04,30.151,30.151,0,0,1,16.247-16.828A31.9,31.9,0,0,1,349.344,68.9a29.568,29.568,0,0,1,12.476,2.611,28.748,28.748,0,0,1,9.574,6.818,31.488,31.488,0,0,1,8.269,22.775v1.015c0,.725-.145,1.306-.145,1.6H329.325a24.728,24.728,0,0,0,2.031,8.269,20.289,20.289,0,0,0,4.5,6.383,21.232,21.232,0,0,0,6.383,4.207,18.416,18.416,0,0,0,7.543,1.451,23.962,23.962,0,0,0,5.513-.725,18.583,18.583,0,0,0,4.932-2.031,14.667,14.667,0,0,0,4.062-3.191,15.417,15.417,0,0,0,1.306-1.6,4.434,4.434,0,0,1,4.642-1.741h.29a4.245,4.245,0,0,1,2.031,6.818c-.29.29-.435.58-.725.87a24.714,24.714,0,0,1-6.093,4.787,31.89,31.89,0,0,1-7.543,3.191A36.386,36.386,0,0,1,349.2,131.713Zm20.744-35.4a24.064,24.064,0,0,0-2.176-7.979,22.181,22.181,0,0,0-4.5-6.238,20.832,20.832,0,0,0-6.383-4.062,21.1,21.1,0,0,0-15.377,0,20.832,20.832,0,0,0-6.383,4.062,17.293,17.293,0,0,0-4.352,6.238,24.019,24.019,0,0,0-2.031,7.834h41.2Z" transform="translate(-274.78 -45.835)" fill="#04325e"/>
          <path id="Trazado_23" data-name="Trazado 23" d="M372.856,53H377.5a2.754,2.754,0,0,1,2.756,2.756v66.3A7.326,7.326,0,0,0,382,127.274a6.468,6.468,0,0,0,5.077,1.886,12.786,12.786,0,0,0,3.046-.435h0a3.29,3.29,0,0,1,3.917,2.466l.435,2.031a3.108,3.108,0,0,1-2.176,3.627,22.543,22.543,0,0,1-3.336.725,34.385,34.385,0,0,1-6.093.725c-3.917,0-7.108-1.161-9.284-3.337-2.321-2.176-3.482-5.367-3.482-9.429V55.9A2.884,2.884,0,0,1,372.856,53Z" transform="translate(-251.436 -53)" fill="#04325e"/>
          <path id="Trazado_24" data-name="Trazado 24" d="M397.256,53H401.9a2.754,2.754,0,0,1,2.756,2.756v66.3a7.326,7.326,0,0,0,1.741,5.222,6.468,6.468,0,0,0,5.077,1.886,12.787,12.787,0,0,0,3.046-.435h0a3.29,3.29,0,0,1,3.917,2.466l.435,2.031a3.108,3.108,0,0,1-2.176,3.627,22.539,22.539,0,0,1-3.336.725,34.385,34.385,0,0,1-6.093.725c-3.917,0-7.108-1.161-9.284-3.337-2.321-2.176-3.482-5.367-3.482-9.429V55.9A2.884,2.884,0,0,1,397.256,53Z" transform="translate(-240.44 -53)" fill="#04325e"/>
          <path id="Trazado_25" data-name="Trazado 25" d="M446.8,131.713a31.9,31.9,0,0,1-12.476-2.466,27.4,27.4,0,0,1-9.719-6.818,32.746,32.746,0,0,1-6.383-10.01,33.721,33.721,0,0,1-2.321-12.186,30.7,30.7,0,0,1,2.321-12.04,30.151,30.151,0,0,1,16.247-16.828A31.9,31.9,0,0,1,446.944,68.9a29.568,29.568,0,0,1,12.476,2.611,28.748,28.748,0,0,1,9.574,6.818,31.184,31.184,0,0,1,6.818,11.9,31.631,31.631,0,0,1,1.451,11.025v1.015c0,.725-.145,1.306-.145,1.6H426.925a24.728,24.728,0,0,0,2.031,8.269,20.29,20.29,0,0,0,4.5,6.383,21.233,21.233,0,0,0,6.383,4.207,18.416,18.416,0,0,0,7.543,1.451,23.962,23.962,0,0,0,5.513-.725,18.583,18.583,0,0,0,4.932-2.031,14.668,14.668,0,0,0,4.062-3.191,15.418,15.418,0,0,0,1.306-1.6,4.434,4.434,0,0,1,4.642-1.741h.29a4.245,4.245,0,0,1,2.031,6.818c-.29.29-.435.58-.725.87a24.715,24.715,0,0,1-6.093,4.787,31.891,31.891,0,0,1-7.543,3.191A36.37,36.37,0,0,1,446.8,131.713Zm20.744-35.4a24.064,24.064,0,0,0-2.176-7.979,22.181,22.181,0,0,0-4.5-6.238,20.832,20.832,0,0,0-6.383-4.062,21.1,21.1,0,0,0-15.377,0,20.832,20.832,0,0,0-6.383,4.062,17.293,17.293,0,0,0-4.352,6.238,24.019,24.019,0,0,0-2.031,7.834h41.2Z" transform="translate(-230.796 -45.835)" fill="#04325e"/>
          <path id="Trazado_26" data-name="Trazado 26" d="M464.7,100.144a33.438,33.438,0,0,1,2.176-12.04,30.081,30.081,0,0,1,6.238-9.864,30.536,30.536,0,0,1,9.719-6.673A32.1,32.1,0,0,1,495.454,69.1a28.989,28.989,0,0,1,15.667,4.062,25.466,25.466,0,0,1,5.658,4.642,4.983,4.983,0,0,1-2.176,8.124h0a5.065,5.065,0,0,1-5.367-1.6,17.116,17.116,0,0,0-4.642-3.917,18.39,18.39,0,0,0-9.284-2.321,18.174,18.174,0,0,0-7.833,1.741,20.677,20.677,0,0,0-6.383,4.642,23.06,23.06,0,0,0-4.207,7.108,25.436,25.436,0,0,0-1.6,8.994,26.669,26.669,0,0,0,1.6,8.994,21.508,21.508,0,0,0,4.352,7.253,20.51,20.51,0,0,0,6.383,4.787,18.174,18.174,0,0,0,7.833,1.741,21.576,21.576,0,0,0,5.222-.725,17.631,17.631,0,0,0,4.787-2.031,19.883,19.883,0,0,0,3.772-2.9l.725-.725a5.14,5.14,0,0,1,5.367-1.741h0a4.892,4.892,0,0,1,2.321,7.979h0a23.244,23.244,0,0,1-5.8,4.787,35.749,35.749,0,0,1-7.543,3.191,34.072,34.072,0,0,1-8.7,1.161,30.573,30.573,0,0,1-22.2-9.429,32.747,32.747,0,0,1-6.383-10.01A41.019,41.019,0,0,1,464.7,100.144Z" transform="translate(-208.804 -45.744)" fill="#04325e"/>
          <path id="Trazado_27" data-name="Trazado 27" d="M545.676,131.089a2.822,2.822,0,0,1-1.741,3.482h0q-1.523.653-3.482,1.306a29.837,29.837,0,0,1-4.207,1.015,24.01,24.01,0,0,1-4.642.435,15.122,15.122,0,0,1-9.574-3.046c-2.756-2.031-4.062-5.222-4.062-9.574V83.943H509.7V75.964h8.269V58.556a2.754,2.754,0,0,1,2.756-2.756h4.642a2.754,2.754,0,0,1,2.756,2.756V75.964H541.76v7.979H528.123v37.572a6.578,6.578,0,0,0,2.176,4.932,7.378,7.378,0,0,0,4.642,1.451,13.349,13.349,0,0,0,5.513-1.015c.145,0,.29-.145.435-.145a3.018,3.018,0,0,1,3.917,1.886Z" transform="translate(-188.524 -51.738)" fill="#04325e"/>
        </g>
      </g>
    </g>
  </g>
</svg>
